---
title: "dBpoweramp under Wine"
date: 2016-12-04
forum: Multimedia Software
---

### Post by shantiq on 2016-12-04
There is an amazing [very smooth] ripper called [dBpoweramp]("https://www.dbpoweramp.com/cd-ripper.htm") which you may have come across in Windows and which works PERFECTLY under wine
You are given 21 days to evaluate it BUT the ripper remains yours unlimited timewise in the Burst Mode which is ok with most folks

It works very fast and very accurately

If you have bought the license or are in the 21 days-trial you can make a rip as accurate as [EAC]("https://ubuntuforums.org/showthread.php?t=2092214&highlight=shantiq+eac")

Which will allow you to produce a log of that type

```
dBpoweramp Release 14.3 Digital Audio Extraction Log from 03 December 2016 08:57 
 
Drive & Settings 
---------------- 
 
Ripping with drive 'D:   [TSSTcorp - BDDVDW SE-506BB ]',  Drive offset: 6,  Overread Lead-in/out: No 
AccurateRip: Active,  Using C2: No,  Cache: 1024 KB,  FUA Cache Invalidate: Yes 
Pass 1 Drive Speed: Max,  Pass 2 Drive Speed: Max 
Bad Sector Re-rip::  Drive Speed: Max,  Maximum Re-reads: 34 
 
Encoder: Apple Lossless -v 
 
Extraction Log 
-------------- 
 
Track 1:  Ripped LBA 0 to 33225 (7:23) in 0:52. Filename: Z:\media\extradrive\Musica\Charles Mingus\Mingus Ah Um\01 Charles Mingus - Better Git It in Your Soul.m4a 
  AccurateRip: Accurate (confidence 40)     [Pass 1] 
  CRC32: 30ADD29E     AccurateRip CRC: CD0970D1 (CRCv2)     [DiscID: 012-0020a2d2-01325127-9a11010c-1] 
  AccurateRip Verified Confidence 40 [CRCv2 cd0970d1] 
  AccurateRip Verified Confidence 19 [CRCv1 94e4499e] 
  AccurateRip Verified Confidence 97 [CRCv2 ff1d438b], Using Pressing Offset +628 
  AccurateRip Verified Confidence 77 [CRCv1 16f87a9c], Using Pressing Offset +628 
 
Track 2:  Ripped LBA 33225 to 59043 (5:44) in 0:25. Filename: Z:\media\extradrive\Musica\Charles Mingus\Mingus Ah Um\02 Charles Mingus - Goodbye Pork Pie Hat.m4a 
  AccurateRip: Accurate (confidence 39)     [Pass 1] 
  CRC32: 1451040E     AccurateRip CRC: 4CAD0A0C (CRCv2)     [DiscID: 012-0020a2d2-01325127-9a11010c-2] 
  AccurateRip Verified Confidence 39 [CRCv2 4cad0a0c] 
  AccurateRip Verified Confidence 18 [CRCv1 7dccdb74] 
  AccurateRip Verified Confidence 96 [CRCv2 a0be08ec], Using Pressing Offset +628 
  AccurateRip Verified Confidence 79 [CRCv1 d0304a79], Using Pressing Offset +628 
 
Track 3:  Ripped LBA 59043 to 81743 (5:02) in 0:20. Filename: Z:\media\extradrive\Musica\Charles Mingus\Mingus Ah Um\03 Charles Mingus - Boogie Stop Shuffle.m4a 
  AccurateRip: Accurate (confidence 39)     [Pass 1] 
  CRC32: C732F8E9     AccurateRip CRC: 925728F0 (CRCv2)     [DiscID: 012-0020a2d2-01325127-9a11010c-3] 
  AccurateRip Verified Confidence 39 [CRCv2 925728f0] 
  AccurateRip Verified Confidence 18 [CRCv1 f2e8af1b] 
  AccurateRip Verified Confidence 94 [CRCv2 beb7a261], Using Pressing Offset +628 
  AccurateRip Verified Confidence 81 [CRCv1 58f428d7], Using Pressing Offset +628 
 
Track 4:  Ripped LBA 81743 to 96008 (3:10) in 0:12. Filename: Z:\media\extradrive\Musica\Charles Mingus\Mingus Ah Um\04 Charles Mingus - Self-Portrait in Three Colors.m4a 
  AccurateRip: Accurate (confidence 38)     [Pass 1] 
  CRC32: 0F72D3DC     AccurateRip CRC: 26C7B840 (CRCv2)     [DiscID: 012-0020a2d2-01325127-9a11010c-4] 
  AccurateRip Verified Confidence 38 [CRCv2 26c7b840] 
  AccurateRip Verified Confidence 19 [CRCv1 7356774f] 
  AccurateRip Verified Confidence 95 [CRCv2 818c27aa], Using Pressing Offset +628 
  AccurateRip Verified Confidence 81 [CRCv1 10ebc975], Using Pressing Offset +628 
 
Track 5:  Ripped LBA 96008 to 122343 (5:51) in 0:21. Filename: Z:\media\extradrive\Musica\Charles Mingus\Mingus Ah Um\05 Charles Mingus - Open Letter to Duke.m4a 
  AccurateRip: Accurate (confidence 38)     [Pass 1] 
  CRC32: DF4F6B2E     AccurateRip CRC: B2979CD5 (CRCv2)     [DiscID: 012-0020a2d2-01325127-9a11010c-5] 
  AccurateRip Verified Confidence 38 [CRCv2 b2979cd5] 
  AccurateRip Verified Confidence 19 [CRCv1 cd44721a] 
  AccurateRip Verified Confidence 95 [CRCv2 7eccd4e2], Using Pressing Offset +628 
  AccurateRip Verified Confidence 81 [CRCv1 79d8176], Using Pressing Offset +628 
 
Track 6:  Ripped LBA 122343 to 150670 (6:17) in 0:21. Filename: Z:\media\extradrive\Musica\Charles Mingus\Mingus Ah Um\06 Charles Mingus - Bird Calls.m4a 
  AccurateRip: Accurate (confidence 38)     [Pass 1] 
  CRC32: AAC413A8     AccurateRip CRC: 98195C48 (CRCv2)     [DiscID: 012-0020a2d2-01325127-9a11010c-6] 
  AccurateRip Verified Confidence 38 [CRCv2 98195c48] 
  AccurateRip Verified Confidence 19 [CRCv1 d150af80] 
  AccurateRip Verified Confidence 96 [CRCv2 2ab3327a], Using Pressing Offset +628 
  AccurateRip Verified Confidence 81 [CRCv1 b6e104d7], Using Pressing Offset +628 
 
Track 7:  Ripped LBA 150670 to 187693 (8:13) in 0:25. Filename: Z:\media\extradrive\Musica\Charles Mingus\Mingus Ah Um\07 Charles Mingus - Fables of Faubus.m4a 
  AccurateRip: Accurate (confidence 39)     [Pass 1] 
  CRC32: FB0B9B13     AccurateRip CRC: EC985F3F (CRCv2)     [DiscID: 012-0020a2d2-01325127-9a11010c-7] 
  AccurateRip Verified Confidence 39 [CRCv2 ec985f3f] 
  AccurateRip Verified Confidence 18 [CRCv1 d9717633] 
  AccurateRip Verified Confidence 95 [CRCv2 aeee8f57], Using Pressing Offset +628 
  AccurateRip Verified Confidence 79 [CRCv1 f2c87044], Using Pressing Offset +628 
 
Track 8:  Ripped LBA 187693 to 229293 (9:14) in 0:26. Filename: Z:\media\extradrive\Musica\Charles Mingus\Mingus Ah Um\08 Charles Mingus - ***** Cat Dues.m4a 
  AccurateRip: Accurate (confidence 38)     [Pass 1] 
  CRC32: 7BC9E3D1     AccurateRip CRC: 3F390C30 (CRCv2)     [DiscID: 012-0020a2d2-01325127-9a11010c-8] 
  AccurateRip Verified Confidence 38 [CRCv2 3f390c30] 
  AccurateRip Verified Confidence 19 [CRCv1 be591f3f] 
  AccurateRip Verified Confidence 96 [CRCv2 3d90fcab], Using Pressing Offset +628 
  AccurateRip Verified Confidence 80 [CRCv1 e6ebda2a], Using Pressing Offset +628 
 
Track 9:  Ripped LBA 229293 to 257575 (6:17) in 0:17. Filename: Z:\media\extradrive\Musica\Charles Mingus\Mingus Ah Um\09 Charles Mingus - Jelly Roll.m4a 
  AccurateRip: Accurate (confidence 38)     [Pass 1] 
  CRC32: 2497F5F3     AccurateRip CRC: 7BCE9322 (CRCv2)     [DiscID: 012-0020a2d2-01325127-9a11010c-9] 
  AccurateRip Verified Confidence 38 [CRCv2 7bce9322] 
  AccurateRip Verified Confidence 20 [CRCv1 578f4438] 
  AccurateRip Verified Confidence 96 [CRCv2 557a30a4], Using Pressing Offset +628 
  AccurateRip Verified Confidence 80 [CRCv1 d611f78c], Using Pressing Offset +628 
 
Track 10:  Ripped LBA 257575 to 286880 (6:30) in 0:17. Filename: Z:\media\extradrive\Musica\Charles Mingus\Mingus Ah Um\10 Charles Mingus - Pedal Point Blues.m4a 
  AccurateRip: Accurate (confidence 38)     [Pass 1] 
  CRC32: 41D86DA1     AccurateRip CRC: 131A700E (CRCv2)     [DiscID: 012-0020a2d2-01325127-9a11010c-10] 
  AccurateRip Verified Confidence 38 [CRCv2 131a700e] 
  AccurateRip Verified Confidence 20 [CRCv1 fd85ab97] 
  AccurateRip Verified Confidence 94 [CRCv2 cca8912d], Using Pressing Offset +628 
  AccurateRip Verified Confidence 78 [CRCv1 3ecf5ab2], Using Pressing Offset +628 
 
Track 11:  Ripped LBA 286880 to 307853 (4:39) in 0:11. Filename: Z:\media\extradrive\Musica\Charles Mingus\Mingus Ah Um\11 Charles Mingus - GG Train.m4a 
  AccurateRip: Accurate (confidence 38)     [Pass 1] 
  CRC32: 9F57A28F     AccurateRip CRC: 67F36EB7 (CRCv2)     [DiscID: 012-0020a2d2-01325127-9a11010c-11] 
  AccurateRip Verified Confidence 38 [CRCv2 67f36eb7] 
  AccurateRip Verified Confidence 20 [CRCv1 fed0164f] 
  AccurateRip Verified Confidence 93 [CRCv2 fed030ac], Using Pressing Offset +628 
  AccurateRip Verified Confidence 80 [CRCv1 9713d60], Using Pressing Offset +628 
 
Track 12:  Ripped LBA 307853 to 326508 (4:08) in 0:10. Filename: Z:\media\extradrive\Musica\Charles Mingus\Mingus Ah Um\12 Charles Mingus - Girl of My Dreams.m4a 
  AccurateRip: Accurate (confidence 38)     [Pass 1] 
  CRC32: A40EE08F     AccurateRip CRC: AE27CE76 (CRCv2)     [DiscID: 012-0020a2d2-01325127-9a11010c-12] 
  AccurateRip Verified Confidence 38 [CRCv2 ae27ce76] 
  AccurateRip Verified Confidence 19 [CRCv1 cd6411d5] 
  AccurateRip Verified Confidence 95 [CRCv2 e9bdc982], Using Pressing Offset +628 
  AccurateRip Verified Confidence 76 [CRCv1 1edc4a69], Using Pressing Offset +628 
 
-------------- 
 
12 Tracks Ripped Accurately
```


The settings info to produce this are [here]("https://www.dbpoweramp.com/cd-ripper-setup-guide.htm")

There is also a [cue plugin]("https://forum.dbpoweramp.com/showthread.php?18981-codec-CUE-Sheet-Image-Utility-Codec") but I have not tried it myself

[Extra Codecs]("https://www.dbpoweramp.com/codec-central.htm")    wavpack opus etc
Can use a CLI route if favoured

**[ATTACH]272535[/ATTACH]**

[B]



Seeing drive Under Wine  [[/B]you may need to do this[B]]
++++++++++++


At this point [/B]you possibly may not see your cd drive


to remedy that [thanx [**mc4man**]("http://ubuntuforums.org/showpost.php?p=11666541&postcount=6")]


```
sudo mkdir /media/cdrom0
``````
sudo gedit /etc/fstab
```Add this line at bottom on a new line

```
/dev/sr0   /media/cdrom0   udf,iso9660 user,noauto,exec   0 0
```save


**AND**

Go to:

Applications/Wine/Configure Wine/Drive/Add a new drive [ call it D or whatever is not already in use]  

  [B]and do this 
[/B]
[When you browse Find your correct drive under Media]


  [IMG]http://ubuntuforums.org/attachment.php?attachmentid=212116&d=1328473805[/IMG]



**now your drive is visible!**

---

### Post by MartyBuntu on 2016-12-04
I agree with your assessment of **dBpoweramp**.
I've been running it under Wine since Ubuntu 12.04. It runs flawlessly under Wine.

---

